<svg width="56" height="57" viewBox="0 0 56 57" fill="none" xmlns="http://www.w3.org/2000/svg">
  <path d="M22.7883 55.9819C26.172 55.9819 29.7894 56.31 33.1034 55.461C37.8447 54.251 40.199 50.0224 40.8101 45.4206C41.2161 42.365 41.0398 39.1946 41.0398 36.1185V12.7073C41.0398 10.0701 36.9383 10.0619 36.9383 12.7073V53.9024L38.9891 51.8517H19.3593L21.4101 53.9024V27.8499L19.3593 29.9007H38.4435C41.0808 29.9007 41.089 25.7992 38.4435 25.7992H19.3593C18.2519 25.7992 17.3086 26.7384 17.3086 27.8499V53.9024C17.3086 55.0098 18.2478 55.9532 19.3593 55.9532H38.9891C40.0965 55.9532 41.0398 55.0139 41.0398 53.9024V12.7073C41.0398 10.0701 36.9383 10.0619 36.9383 12.7073V32.8988C36.9383 35.8355 36.9506 38.768 36.9383 41.7047C36.926 45.0761 36.5404 49.7148 32.9516 51.2119C31.311 51.8927 30.2282 51.864 28.399 51.8763C26.5697 51.8886 24.6586 51.8763 22.7883 51.8763C20.1511 51.8763 20.1428 55.9778 22.7883 55.9778V55.9819Z" fill="#FFD44A" style="fill:#FFD44A;fill:color(display-p3 1.0000 0.8314 0.2902);fill-opacity:1;"/>
  <path d="M27.6774 3.49952C35.9296 11.6983 44.1777 19.8972 52.4298 28.096L51.8308 26.6441V53.7794L53.8816 51.7286H33.1323C30.4951 51.7286 30.4869 55.8301 33.1323 55.8301H53.8816C54.9889 55.8301 55.9323 54.8909 55.9323 53.7794C55.9323 44.9899 56.084 36.1882 55.9323 27.4028C55.8872 24.8025 53.1926 23.0676 51.4659 21.3491C47.3891 17.3009 43.3122 13.2487 39.2394 9.20056C36.352 6.33364 33.4687 3.46671 30.5813 0.599791C28.7069 -1.26227 25.8071 1.63746 27.6815 3.49952H27.6774Z" fill="#FFA24A" style="fill:#FFA24A;fill:color(display-p3 1.0000 0.6353 0.2902);fill-opacity:1;"/>
  <mask id="mask0_277_493" style="mask-type:luminance" maskUnits="userSpaceOnUse" x="16" y="9" width="26" height="48">
    <path d="M16.4844 9.91016V56.8637H41.897V9.91016H16.4844ZM41.45 17.1861C39.8176 15.5661 38.1893 13.946 36.5569 12.3259C36.7456 11.0093 37.8693 10.3244 38.9849 10.3244C40.2072 10.3244 41.4458 11.1447 41.4458 12.7156V17.1861H41.45Z" fill="white" style="fill:white;fill-opacity:1;"/>
  </mask>
  <g mask="url(#mask0_277_493)">
    <path d="M22.7883 55.9819C26.172 55.9819 29.7894 56.31 33.1034 55.461C37.8447 54.251 40.199 50.0224 40.8101 45.4206C41.2161 42.365 41.0398 39.1946 41.0398 36.1185V12.7073C41.0398 10.0701 36.9383 10.0619 36.9383 12.7073V53.9024L38.9891 51.8517H19.3593L21.4101 53.9024V27.8499L19.3593 29.9007H38.4435C41.0808 29.9007 41.089 25.7992 38.4435 25.7992H19.3593C18.2519 25.7992 17.3086 26.7384 17.3086 27.8499V53.9024C17.3086 55.0098 18.2478 55.9532 19.3593 55.9532H38.9891C40.0965 55.9532 41.0398 55.0139 41.0398 53.9024V12.7073C41.0398 10.0701 36.9383 10.0619 36.9383 12.7073V32.8988C36.9383 35.8355 36.9506 38.768 36.9383 41.7047C36.926 45.0761 36.5404 49.7148 32.9516 51.2119C31.311 51.8927 30.2282 51.864 28.399 51.8763C26.5697 51.8886 24.6586 51.8763 22.7883 51.8763C20.1511 51.8763 20.1428 55.9778 22.7883 55.9778V55.9819Z" fill="#FFD44A" style="fill:#FFD44A;fill:color(display-p3 1.0000 0.8314 0.2902);fill-opacity:1;"/>
  </g>
  <path d="M4.12705 53.726V28.8917L3.52806 30.3436C11.4152 22.5303 19.2983 14.7129 27.1854 6.89964C28.3174 5.77994 29.4453 4.66024 30.5773 3.54054C32.4558 1.67848 29.5561 -1.22126 27.6776 0.640806C21.1563 7.10061 14.6391 13.5645 8.11777 20.0243C5.6815 22.4401 2.84312 24.7533 0.665242 27.4111C-0.208369 28.4733 0.0295956 29.876 0.0295956 31.1721V53.7301C0.0295956 56.3674 4.13106 56.3756 4.13106 53.7301L4.12705 53.726Z" fill="#FF612A" style="fill:#FF612A;fill:color(display-p3 1.0000 0.3804 0.1647);fill-opacity:1;"/>
</svg>
